# Blender 4.1.1
# www.blender.org
mtllib smiglo.mtl
o Cylinder.001
v -0.130680 -0.087581 1.427731
v -0.229131 -0.231681 1.426509
v -0.302286 -0.119294 1.425591
v -0.392171 -0.396625 1.441501
v -0.519092 -0.201637 1.440611
v -0.755635 -0.552877 1.446696
v -0.809069 -0.470788 1.446462
v -0.131565 -0.087577 1.498627
v -0.230016 -0.231677 1.497406
v -0.303171 -0.119290 1.496487
v -0.393056 -0.396622 1.481049
v -0.519978 -0.201633 1.480160
v -0.756521 -0.552873 1.471448
v -0.809954 -0.470784 1.471213
v 0.141124 -0.069127 1.427731
v 0.315142 -0.082338 1.426509
v 0.254389 -0.201885 1.425591
v 0.539509 -0.141063 1.441501
v 0.434105 -0.348474 1.440611
v 0.856559 -0.377707 1.446696
v 0.812184 -0.465025 1.446462
v 0.141563 -0.069895 1.498627
v 0.315582 -0.083106 1.497406
v 0.254829 -0.202653 1.496487
v 0.539948 -0.141831 1.481049
v 0.434544 -0.349242 1.480160
v 0.856998 -0.378475 1.471448
v 0.812624 -0.465793 1.471213
v -0.010760 0.157034 1.427731
v -0.086329 0.314345 1.426509
v 0.047579 0.321505 1.425591
v -0.147655 0.538014 1.441501
v 0.084671 0.550437 1.440611
v -0.101240 0.930909 1.446696
v -0.003433 0.936139 1.446462
v -0.010314 0.157799 1.498627
v -0.085883 0.315110 1.497406
v 0.048024 0.322270 1.496487
v -0.147209 0.538779 1.481049
v 0.085116 0.551202 1.480160
v -0.100794 0.931674 1.471448
v -0.002987 0.936905 1.471213
vn 0.0125 -0.0000 -0.9999
vn -0.0529 -0.0426 -0.9977
vn -0.0099 -0.0110 -0.9999
vn -0.0125 0.0001 0.9999
vn -0.0653 -0.0344 0.9973
vn -0.0222 -0.0099 0.9997
vn 0.8256 -0.5642 0.0103
vn 0.3950 -0.9186 0.0089
vn -0.3553 0.9347 -0.0045
vn -0.1817 0.9834 -0.0023
vn -0.6804 0.7327 -0.0153
vn -0.8377 -0.5453 -0.0299
vn 0.7116 -0.7026 0.0089
vn -0.0062 0.0108 -0.9999
vn 0.0634 -0.0245 -0.9977
vn 0.0145 -0.0031 -0.9999
vn 0.0062 -0.0108 0.9999
vn 0.0624 -0.0394 0.9973
vn 0.0196 -0.0143 0.9997
vn 0.0758 0.9971 0.0103
vn 0.5980 0.8014 0.0089
vn -0.6318 -0.7751 -0.0045
vn -0.7608 -0.6490 -0.0023
vn -0.2943 -0.9556 -0.0153
vn 0.8911 -0.4528 -0.0298
vn 0.2526 0.9675 0.0089
vn -0.0063 -0.0108 -0.9999
vn -0.0104 0.0671 -0.9977
vn -0.0046 0.0141 -0.9999
vn 0.0063 0.0108 0.9999
vn 0.0029 0.0737 0.9973
vn 0.0025 0.0241 0.9997
vn -0.9014 -0.4329 0.0103
vn -0.9931 0.1172 0.0089
vn 0.9872 -0.1597 -0.0045
vn 0.9425 -0.3343 -0.0023
vn 0.9747 0.2229 -0.0153
vn -0.0534 0.9981 -0.0299
vn -0.9642 -0.2650 0.0089
vn -0.0525 -0.0388 -0.9979
vn -0.0102 -0.0095 -0.9999
vn -0.0616 -0.0356 0.9975
vn -0.0209 -0.0107 0.9997
vn 0.3946 -0.9187 0.0142
vn -0.3545 0.9350 -0.0080
vn -0.6797 0.7331 -0.0244
vn 0.7103 -0.7037 0.0159
vn 0.0598 -0.0261 -0.9979
vn 0.0133 -0.0041 -0.9999
vn 0.0616 -0.0356 0.9975
vn 0.0197 -0.0127 0.9997
vn 0.5984 0.8011 0.0143
vn -0.6325 -0.7745 -0.0080
vn -0.2950 -0.9552 -0.0244
vn 0.8911 -0.4528 -0.0299
vn 0.2543 0.9670 0.0160
vn -0.0073 0.0649 -0.9979
vn -0.0031 0.0136 -0.9999
vn -0.0000 0.0711 0.9975
vn 0.0011 0.0235 0.9997
vn -0.9930 0.1177 0.0142
vn 0.9870 -0.1605 -0.0080
vn 0.9747 0.2221 -0.0244
vn -0.9646 -0.2633 0.0160
vt 0.880340 -0.000000
vt 0.905976 0.112910
vt 0.818309 0.097758
vt 0.760497 0.240346
vt 0.912595 0.266635
vt 0.760497 0.502828
vt 0.032255 -0.000000
vt 0.094287 0.097758
vt 0.006620 0.112910
vt -0.000000 0.266635
vt 0.152099 0.240347
vt 0.088067 0.513896
vt 0.409266 0.513895
vt 0.362235 0.626522
vt 0.362235 0.514104
vt 0.399251 0.766773
vt 0.376868 0.948270
vt 0.373016 0.766798
vt 0.947992 0.752637
vt 0.912596 0.601876
vt 0.959634 0.601879
vt 0.912596 0.486106
vt 0.959634 0.486109
vt 0.942300 0.971836
vt 0.921748 0.752891
vt 0.519762 0.514219
vt 0.503338 0.578466
vt 0.503337 0.513895
vt 0.409267 0.626314
vt 0.271944 -0.000000
vt 0.297579 0.112910
vt 0.209912 0.097757
vt 0.152099 0.240346
vt 0.304199 0.266635
vt 0.152099 0.502828
vt 0.488553 -0.000000
vt 0.550584 0.097757
vt 0.462918 0.112910
vt 0.456298 0.266635
vt 0.608398 0.240346
vt 0.544365 0.513895
vt 0.362235 0.513895
vt 0.315204 0.626522
vt 0.315204 0.514103
vt 0.352219 0.766772
vt 0.329834 0.948270
vt 0.325984 0.766798
vt 0.491695 0.780426
vt 0.456298 0.629665
vt 0.503337 0.629668
vt 0.456298 0.513895
vt 0.503337 0.513898
vt 0.486002 0.999625
vt 0.465451 0.780680
vt 0.552612 0.514219
vt 0.536188 0.578465
vt 0.536187 0.513895
vt 0.362235 0.626313
vt 0.336453 0.513895
vt 0.310818 0.400985
vt 0.398485 0.416137
vt 0.456298 0.273549
vt 0.304199 0.247260
vt 0.456298 0.011067
vt 0.728242 0.513896
vt 0.666211 0.416137
vt 0.753877 0.400985
vt 0.760496 0.247260
vt 0.608398 0.273549
vt 0.672430 -0.000000
vt 0.409267 0.626522
vt 0.409267 0.514103
vt 0.446281 0.766772
vt 0.423898 0.948270
vt 0.420047 0.766798
vt 0.947992 0.266531
vt 0.912596 0.115771
vt 0.959634 0.115774
vt 0.912596 0.000000
vt 0.959634 0.000003
vt 0.942298 0.485730
vt 0.921748 0.266785
vt 0.536187 0.514219
vt 0.519763 0.578466
vt 0.519762 0.513895
vt 0.456298 0.626314
vt 0.824530 0.513895
vt 0.393287 0.948329
vt 0.925873 0.972211
vt 0.519762 0.578790
vt 0.216132 0.513895
vt 0.608398 0.502828
vt 0.346253 0.948329
vt 0.469575 1.000000
vt 0.552612 0.578790
vt 0.392266 -0.000000
vt 0.608398 0.011067
vt 0.440317 0.948330
vt 0.925871 0.486106
vt 0.536187 0.578790
s 0
usemtl Material.003
f 1/1/1 2/2/1 3/3/1
f 2/2/2 5/4/2 3/3/2
f 4/5/3 7/6/3 5/4/3
f 8/7/4 10/8/4 9/9/4
f 10/8/5 11/10/5 9/9/5
f 12/11/6 13/12/6 11/10/6
f 8/13/7 2/14/7 1/15/7
f 11/16/8 6/17/8 4/18/8
f 5/19/9 10/20/9 3/21/9
f 3/21/10 8/22/10 1/23/10
f 7/24/11 12/25/11 5/19/11
f 13/26/12 7/27/12 6/28/12
f 9/29/13 4/18/13 2/14/13
f 15/30/14 16/31/14 17/32/14
f 16/31/15 19/33/15 17/32/15
f 18/34/16 21/35/16 19/33/16
f 22/36/17 24/37/17 23/38/17
f 24/37/18 25/39/18 23/38/18
f 26/40/19 27/41/19 25/39/19
f 22/42/20 16/43/20 15/44/20
f 25/45/21 20/46/21 18/47/21
f 19/48/22 24/49/22 17/50/22
f 17/50/23 22/51/23 15/52/23
f 21/53/24 26/54/24 19/48/24
f 27/55/25 21/56/25 20/57/25
f 23/58/26 18/47/26 16/43/26
f 29/59/27 30/60/27 31/61/27
f 30/60/28 33/62/28 31/61/28
f 32/63/29 35/64/29 33/62/29
f 36/65/30 38/66/30 37/67/30
f 38/66/31 39/68/31 37/67/31
f 40/69/32 41/70/32 39/68/32
f 36/51/33 30/71/33 29/72/33
f 39/73/34 34/74/34 32/75/34
f 33/76/35 38/77/35 31/78/35
f 31/78/36 36/79/36 29/80/36
f 35/81/37 40/82/37 33/76/37
f 41/83/38 35/84/38 34/85/38
f 37/86/39 32/75/39 30/71/39
f 2/2/40 4/5/40 5/4/40
f 4/5/41 6/87/41 7/6/41
f 10/8/42 12/11/42 11/10/42
f 12/11/43 14/35/43 13/12/43
f 8/13/7 9/29/7 2/14/7
f 11/16/44 13/88/44 6/17/44
f 5/19/45 12/25/45 10/20/45
f 3/21/10 10/20/10 8/22/10
f 7/24/46 14/89/46 12/25/46
f 13/26/12 14/90/12 7/27/12
f 9/29/47 11/16/47 4/18/47
f 16/31/48 18/34/48 19/33/48
f 18/34/49 20/91/49 21/35/49
f 24/37/50 26/40/50 25/39/50
f 26/40/51 28/92/51 27/41/51
f 22/42/20 23/58/20 16/43/20
f 25/45/52 27/93/52 20/46/52
f 19/48/53 26/54/53 24/49/53
f 17/50/23 24/49/23 22/51/23
f 21/53/54 28/94/54 26/54/54
f 27/55/55 28/95/55 21/56/55
f 23/58/56 25/45/56 18/47/56
f 30/60/57 32/63/57 33/62/57
f 32/63/58 34/96/58 35/64/58
f 38/66/59 40/69/59 39/68/59
f 40/69/60 42/97/60 41/70/60
f 36/51/33 37/86/33 30/71/33
f 39/73/61 41/98/61 34/74/61
f 33/76/62 40/82/62 38/77/62
f 31/78/36 38/77/36 36/79/36
f 35/81/63 42/99/63 40/82/63
f 41/83/38 42/100/38 35/84/38
f 37/86/64 39/73/64 32/75/64
